[h264 @ 0x564715c4c180] Reinit context to 640x352, pix_fmt: yuv420p
Input #0, mov,mp4,m4a,3gp,3g2,mj2, from '/var/www/html/project/media/video/original/VID-20230528-WA0030.mp4':
  Metadata:
    major_brand     : mp42
    minor_version   : 0
    compatible_brands: mp42isom
  Duration: 00:00:07.76, start: 0.000000, bitrate: 735 kb/s
    Stream #0:0(und): Video: h264 (High), 1 reference frame (avc1 / 0x31637661), yuv420p(tv, bt709, left), 640x352, 699 kb/s, SAR 1:1 DAR 20:11, 30 fps, 30 tbr, 600 tbn, 1200 tbc (default)
    Stream #0:1(und): Audio: aac (LC) (mp4a / 0x6134706D), 44100 Hz, mono, fltp, 32 kb/s (default)
Input #1, png_pipe, from '/var/www/html/project/static/images/templates/logo.png':
  Duration: N/A, bitrate: N/A
    Stream #1:0: Video: png, 1 reference frame, rgba(pc), 1920x1080 [SAR 2835:2835 DAR 16:9], 25 tbr, 25 tbn, 25 tbc
[h264 @ 0x564715d48680] Reinit context to 1280x720, pix_fmt: yuv420p
Input #2, mov,mp4,m4a,3gp,3g2,mj2, from '/var/www/html/project/static/images/templates/Codino.mp4':
  Metadata:
    major_brand     : mp42
    minor_version   : 1
    compatible_brands: isommp41mp42
    creation_time   : 2021-07-11T07:02:58.000000Z
  Duration: 00:00:02.00, start: 0.000000, bitrate: 1007 kb/s
    Stream #2:0(ita): Audio: aac (LC) (mp4a / 0x6134706D), 44100 Hz, stereo, fltp, 102 kb/s (default)
    Metadata:
      creation_time   : 2021-07-11T07:02:58.000000Z
      handler_name    : Core Media Audio
    Stream #2:1(und): Video: h264 (High), 1 reference frame (avc1 / 0x31637661), yuv420p(tv, bt709, progressive, left), 1280x720 [SAR 1:1 DAR 16:9], 813 kb/s, 25 fps, 25 tbr, 25k tbn, 50k tbc (default)
    Metadata:
      creation_time   : 2021-07-11T07:02:58.000000Z
      handler_name    : Core Media Video
[Parsed_scale_0 @ 0x564715cea800] w:1280 h:720 flags:'bilinear' interl:0
[Parsed_scale_2 @ 0x564715ca4fc0] w:1280 h:720 flags:'bilinear' interl:0
[Parsed_scale_4 @ 0x564715c9a100] w:1280 h:720 flags:'bilinear' interl:0
Stream mapping:
  Stream #0:0 (h264) -> scale
  Stream #0:1 (aac) -> concat:in0:a0
  Stream #1:0 (png) -> scale
  Stream #2:0 (aac) -> concat:in1:a0
  Stream #2:1 (h264) -> scale
  concat:out:v0 -> Stream #0:0 (libx264)
  concat:out:a0 -> Stream #0:1 (aac)
Press [q] to stop, [?] for help
[h264 @ 0x564715d0aec0] Reinit context to 640x352, pix_fmt: yuv420p
[h264 @ 0x5647160e78c0] Reinit context to 1280x720, pix_fmt: yuv420p
[Parsed_scale_0 @ 0x564716ae2ac0] w:1280 h:720 flags:'bilinear' interl:0
[Parsed_scale_2 @ 0x564716ae3180] w:1280 h:720 flags:'bilinear' interl:0
[Parsed_scale_4 @ 0x564716aec200] w:1280 h:720 flags:'bilinear' interl:0
[graph 0 input from stream 0:0 @ 0x564716af0980] w:640 h:352 pixfmt:yuv420p tb:1/600 fr:30/1 sar:1/1 sws_param:flags=2
[graph 0 input from stream 1:0 @ 0x564716af19c0] w:1920 h:1080 pixfmt:rgba tb:1/25 fr:25/1 sar:2835/2835 sws_param:flags=2
[graph 0 input from stream 2:1 @ 0x564716af2a40] w:1280 h:720 pixfmt:yuv420p tb:1/25000 fr:25/1 sar:1/1 sws_param:flags=2
[graph_0_in_0_1 @ 0x564716af3a00] tb:1/44100 samplefmt:fltp samplerate:44100 chlayout:0x4
[graph_0_in_2_0 @ 0x564716af4b40] tb:1/44100 samplefmt:fltp samplerate:44100 chlayout:0x3
[Parsed_concat_7 @ 0x564716aee9c0] auto-inserting filter 'auto_resampler_0' between the filter 'graph_0_in_2_0' and the filter 'Parsed_concat_7'
[Parsed_scale_0 @ 0x564716ae2ac0] w:640 h:352 fmt:yuv420p sar:1/1 -> w:1280 h:720 fmt:yuv420p sar:45/44 flags:0x2
[Parsed_setsar_1 @ 0x564716ae2d00] w:1280 h:720 sar:45/44 dar:20/11 -> sar:1/1 dar:16/9
[Parsed_scale_2 @ 0x564716ae3180] w:1920 h:1080 fmt:rgba sar:2835/2835 -> w:1280 h:720 fmt:yuva420p sar:1/1 flags:0x2
[Parsed_setsar_3 @ 0x564715cb1500] w:1280 h:720 sar:1/1 dar:16/9 -> sar:1/1 dar:16/9
[Parsed_overlay_6 @ 0x564716aed880] main w:1280 h:720 fmt:yuv420p overlay w:1280 h:720 fmt:yuva420p
[Parsed_overlay_6 @ 0x564716aed880] [framesync @ 0x564716aed9e8] Selected 1/600 time base
[Parsed_overlay_6 @ 0x564716aed880] [framesync @ 0x564716aed9e8] Sync level 2
[Parsed_scale_4 @ 0x564716aec200] w:1280 h:720 fmt:yuv420p sar:1/1 -> w:1280 h:720 fmt:yuv420p sar:1/1 flags:0x2
[Parsed_setsar_5 @ 0x564716aecd00] w:1280 h:720 sar:1/1 dar:16/9 -> sar:1/1 dar:16/9
[auto_resampler_0 @ 0x564716af76c0] ch:2 chl:stereo fmt:fltp r:44100Hz -> ch:1 chl:mono fmt:fltp r:44100Hz
[libx264 @ 0x564715d47080] using SAR=1/1
[libx264 @ 0x564715d47080] using cpu capabilities: MMX2 SSE2Fast SSSE3 SSE4.2 AVX FMA3 BMI2 AVX2
[libx264 @ 0x564715d47080] profile High, level 3.1
[libx264 @ 0x564715d47080] 264 - core 155 r2917 0a84d98 - H.264/MPEG-4 AVC codec - Copyleft 2003-2018 - http://www.videolan.org/x264.html - options: cabac=1 ref=1 deblock=1:0:0 analyse=0x3:0x113 me=hex subme=2 psy=1 psy_rd=1.00:0.00 mixed_ref=0 me_range=16 chroma_me=1 trellis=0 8x8dct=1 cqm=0 deadzone=21,11 fast_pskip=1 chroma_qp_offset=0 threads=22 lookahead_threads=5 sliced_threads=0 nr=0 decimate=1 interlaced=0 bluray_compat=0 constrained_intra=0 bframes=3 b_pyramid=2 b_adapt=1 b_bias=0 direct=1 weightb=1 open_gop=0 weightp=1 keyint=250 keyint_min=25 scenecut=40 intra_refresh=0 rc_lookahead=10 rc=crf mbtree=1 crf=18.0 qcomp=0.60 qpmin=0 qpmax=69 qpstep=4 ip_ratio=1.40 aq=1:1.00
Output #0, mp4, to '/var/www/html/project/media/video/watermarks/VID-20230528-WA0030.mp4':
  Metadata:
    major_brand     : mp42
    minor_version   : 0
    compatible_brands: mp42isom
    encoder         : Lavf58.29.100
    Stream #0:0: Video: h264 (libx264), 1 reference frame (avc1 / 0x31637661), yuv420p, 1280x720 [SAR 1:1 DAR 16:9], q=-1--1, 30 fps, 15360 tbn, 30 tbc (default)
    Metadata:
      encoder         : Lavc58.54.100 libx264
    Side data:
      cpb: bitrate max/min/avg: 0/0/0 buffer size: 0 vbv_delay: -1
    Stream #0:1: Audio: aac (LC) (mp4a / 0x6134706D), 44100 Hz, mono, fltp, delay 1024, 69 kb/s (default)
    Metadata:
      encoder         : Lavc58.54.100 aac
[Parsed_overlay_6 @ 0x564716aed880] [framesync @ 0x564716aed9e8] Sync level 0
[Parsed_concat_7 @ 0x564716aee9c0] EOF on in0:v0, 1 streams left in segment.
[Parsed_concat_7 @ 0x564716aee9c0] EOF on in0:a0, 0 streams left in segment.
[Parsed_concat_7 @ 0x564716aee9c0] Segment finished at pts=7766811
[Parsed_concat_7 @ 0x564716aee9c0] EOF on in1:a0, 1 streams left in segment.
[Parsed_concat_7 @ 0x564716aee9c0] EOF on in1:v0, 0 streams left in segment.
[Parsed_concat_7 @ 0x564716aee9c0] Segment finished at pts=9785496
No more output streams to write to, finishing.
frame=  282 fps= 98 q=-1.0 Lsize=    3222kB time=00:00:09.79 bitrate=2693.9kbits/s speed=3.42x    
[AVIOContext @ 0x564715c4a440] Statistics: 0 seeks, 6 writeouts
video:3133kB audio:78kB subtitle:0kB other streams:0kB global headers:0kB muxing overhead: 0.355999%
Input file #0 (/var/www/html/project/media/video/original/VID-20230528-WA0030.mp4):
  Input stream #0:0 (video): 232 packets read (675873 bytes); 232 frames decoded; 
  Input stream #0:1 (audio): 334 packets read (31165 bytes); 334 frames decoded (342016 samples); 
  Total: 566 packets (707038 bytes) demuxed
Input file #1 (/var/www/html/project/static/images/templates/logo.png):
  Input stream #1:0 (video): 1 packets read (111578 bytes); 1 frames decoded; 
  Total: 1 packets (111578 bytes) demuxed
Input file #2 (/var/www/html/project/static/images/templates/Codino.mp4):
  Input stream #2:0 (audio): 89 packets read (26579 bytes); 87 frames decoded (89024 samples); 
  Input stream #2:1 (video): 50 packets read (203365 bytes); 50 frames decoded; 
  Total: 139 packets (229944 bytes) demuxed
Output file #0 (/var/www/html/project/media/video/watermarks/VID-20230528-WA0030.mp4):
  Output stream #0:0 (video): 282 frames encoded; 282 packets muxed (3208325 bytes); 
  Output stream #0:1 (audio): 422 frames encoded (431540 samples); 423 packets muxed (79605 bytes); 
  Total: 705 packets (3287930 bytes) muxed
[AVIOContext @ 0x564715d49400] Statistics: 2 seeks, 16 writeouts
[libx264 @ 0x564715d47080] frame I:2     Avg QP:10.47  size: 26210
[libx264 @ 0x564715d47080] frame P:103   Avg QP:15.97  size: 18008
[libx264 @ 0x564715d47080] frame B:177   Avg QP:19.10  size:  7347
[libx264 @ 0x564715d47080] consecutive B-frames:  5.7% 29.1%  8.5% 56.7%
[libx264 @ 0x564715d47080] mb I  I16..4: 55.0% 26.2% 18.8%
[libx264 @ 0x564715d47080] mb P  I16..4:  8.2% 23.1%  5.8%  P16..4: 13.1%  8.0%  3.8%  0.0%  0.0%    skip:38.1%
[libx264 @ 0x564715d47080] mb B  I16..4:  1.7%  2.9%  0.3%  B16..8: 16.8%  7.2%  1.3%  direct: 9.3%  skip:60.4%  L0:38.4% L1:45.5% BI:16.1%
[libx264 @ 0x564715d47080] 8x8 transform intra:60.3% inter:47.6%
[libx264 @ 0x564715d47080] coded y,uvDC,uvAC intra: 61.9% 20.3% 3.2% inter: 10.7% 6.1% 0.3%
[libx264 @ 0x564715d47080] i16 v,h,dc,p: 44% 38% 11%  7%
[libx264 @ 0x564715d47080] i8 v,h,dc,ddl,ddr,vr,hd,vl,hu:  8% 63% 13%  2%  2%  1%  7%  1%  4%
[libx264 @ 0x564715d47080] i4 v,h,dc,ddl,ddr,vr,hd,vl,hu: 11% 54% 11%  3%  4%  2%  8%  2%  6%
[libx264 @ 0x564715d47080] i8c dc,h,v,p: 59% 26% 13%  2%
[libx264 @ 0x564715d47080] Weighted P-Frames: Y:5.8% UV:0.0%
[libx264 @ 0x564715d47080] kb/s:2636.41
[aac @ 0x564715d0d000] Qavg: 6507.470
[AVIOContext @ 0x564715c533c0] Statistics: 712592 bytes read, 0 seeks
[AVIOContext @ 0x564715c517c0] Statistics: 111578 bytes read, 0 seeks
[AVIOContext @ 0x564715c52c40] Statistics: 1530915 bytes read, 42 seeks
